<svg width="1263" height="741" viewBox="0 0 1263 741" fill="none" xmlns="http://www.w3.org/2000/svg">
<mask id="mask0_13_86782" style="mask-type:alpha" maskUnits="userSpaceOnUse" x="0" y="0" width="1264" height="741">
<rect x="0.453125" width="1262.61" height="740.721" fill="white"/>
</mask>
<g mask="url(#mask0_13_86782)">
<g filter="url(#filter0_i_13_86782)">
<path d="M497.757 446.235C464.469 406.895 475.061 287.36 441.772 214.731C437.034 193.409 350.683 77.4896 316.316 -21.2112H1277.12V670.995C1064.24 644.775 873.904 760.342 747.418 677.739C715.643 662.608 653.606 589.979 653.606 589.979C617.292 543.073 531.046 485.576 497.757 446.235Z" fill="url(#paint0_linear_13_86782)"/>
</g>
<g opacity="0.8" filter="url(#filter1_i_13_86782)">
<path d="M825.447 605.199C954.528 619.234 1013.85 569.801 1077.37 533.973C1124.38 507.461 1217.81 502.31 1268.11 503.059L1268.11 -25.0898L1005.94 -25.0898C629.47 -25.0899 71.8838 -25.09 -1.53483 -25.0898C95.6441 66.1495 182.4 4.25116 248.413 115.117C346.487 309.866 403.148 332.748 594.759 428.903C677.159 490.458 696.366 591.164 825.447 605.199Z" fill="url(#paint1_linear_13_86782)"/>
</g>
<path d="M1281.87 491.623L1281.86 491.621L1281.84 491.621C1259.11 490.728 1221.9 491.177 1184.09 495.428C1146.31 499.677 1107.85 507.73 1082.71 522.084C1074.36 526.847 1066.1 531.845 1057.74 536.9C1034.69 550.846 1010.93 565.219 982.825 576.243C944.571 591.25 898.294 600.036 834.94 592.959C771.668 585.891 735.455 557.259 704.955 522.668C695.501 511.945 686.611 500.669 677.631 489.278C672.104 482.267 666.542 475.212 660.794 468.216C645.722 449.874 629.405 431.991 609.176 416.549L609.141 416.521L609.101 416.501C602.28 413.005 595.634 409.606 589.154 406.292C506.327 363.929 450.689 335.473 404.983 296.444C355.721 254.379 317.976 200.011 270.229 102.628L270.213 102.594L270.191 102.563C248.495 71.302 226.227 54.3767 203.173 43.6026C185.268 35.2353 166.884 30.5796 147.982 25.7929C142.577 24.424 137.129 23.0444 131.639 21.5642C106.928 14.9029 81.2654 6.19058 54.3969 -12.7493C27.5829 -31.6508 -0.459736 -60.7586 -29.9415 -108.234C-14.5624 -127.374 40.0375 -169.105 137.251 -184.401C198.229 -193.995 263.826 -176.009 324.778 -156.046C334.319 -152.921 343.748 -149.747 353.027 -146.624C373.366 -139.778 392.983 -133.174 411.483 -127.86C438.424 -120.122 463.061 -115.097 484.193 -116.038C505.3 -116.977 517.005 -121.037 525.305 -125.873C529.289 -128.194 532.476 -130.688 535.519 -133.068L535.878 -133.349C539.035 -135.817 542.058 -138.147 545.722 -140.072C553.024 -143.911 562.944 -146.181 581.542 -144.462C600.151 -142.742 627.399 -137.033 669.323 -124.953C734.417 -106.196 760.513 -96.2577 776.495 -90.1713C781.101 -88.4175 784.866 -86.9835 788.483 -85.7504C804.675 -80.2305 817.839 -78.7599 889.348 -70.7717L889.536 -70.7507C951.484 -63.8305 1005.38 -45.5295 1054.96 -28.6911C1062.72 -26.056 1070.38 -23.4569 1077.94 -20.9427C1133.8 -2.37194 1184.72 11.5709 1236.33 0.847357C1287.77 -9.8422 1326.56 -8.73247 1351.98 8.7991C1377.36 26.3074 1389.59 60.3283 1387.56 115.95C1385.53 171.584 1371.61 258.778 1357.95 334.121C1351.13 371.787 1344.37 406.481 1339.21 432.776C1338.54 436.186 1337.9 439.456 1337.29 442.574C1333.18 463.47 1330.42 477.507 1330.02 481.064C1329.68 484.08 1327.6 486.384 1324.26 488.121C1320.92 489.858 1316.41 490.981 1311.42 491.65C1301.43 492.988 1289.66 492.494 1281.87 491.623Z" stroke="url(#paint2_linear_13_86782)" stroke-opacity="0.25"/>
<g opacity="0.8" filter="url(#filter2_i_13_86782)">
<path d="M889.711 258.32C695.889 258.32 631.281 42.9619 584.62 -32.4135C716.281 -32.4134 1073.8 -99.4182 1221.13 -32.4135H1277.36V17.2077C1288.31 39.7891 1289.26 68.2784 1277.36 103.98C1237.5 115.796 1123.02 258.32 889.711 258.32Z" fill="url(#paint3_linear_13_86782)"/>
</g>
<path d="M580.524 -67.8148L580.511 -67.8363L580.495 -67.8563C570.43 -80.9481 567.236 -92.8132 569.782 -104.181C572.335 -115.578 580.682 -126.586 593.95 -137.894C619.021 -159.26 661.405 -181.49 714.446 -209.309C717.562 -210.943 720.715 -212.597 723.903 -214.27C795.598 -251.91 855.614 -259.967 919.222 -251.457C973.114 -244.246 1029.58 -225.145 1097.93 -202.022C1110.31 -197.835 1123.07 -193.517 1136.28 -189.114C1179.38 -174.749 1218.65 -165.098 1252.98 -157.413C1263.29 -155.106 1273.14 -152.977 1282.52 -150.952C1304.4 -146.225 1323.68 -142.061 1340 -137.51C1363.33 -131.005 1380.48 -123.743 1390.47 -113.03C1400.41 -102.37 1403.33 -88.2089 1397.98 -67.6778C1389.4 -34.7851 1366.74 -5.25119 1341.85 18.3185C1317.03 41.8347 1290.03 59.3719 1272.71 68.3423C1266.34 68.3734 1259.17 70.8236 1251.09 75.0303C1242.95 79.2671 1233.82 85.3126 1223.59 92.5493C1218.09 96.4323 1212.28 100.659 1206.11 105.138C1189.29 117.367 1169.88 131.475 1147.39 145.589C1085.98 184.14 1001.72 222.682 885.19 222.682C788.5 222.682 724.024 168.978 677.862 105.786C654.78 74.1881 636.287 40.2302 620.644 9.44806C616.22 0.742828 612.022 -7.71199 608.012 -15.7886C597.853 -36.2516 588.899 -54.2866 580.524 -67.8148Z" stroke="url(#paint4_linear_13_86782)" stroke-opacity="0.15"/>
</g>
<defs>
<filter id="filter0_i_13_86782" x="316.316" y="-43.2112" width="960.803" height="751.211" filterUnits="userSpaceOnUse" color-interpolation-filters="sRGB">
<feFlood flood-opacity="0" result="BackgroundImageFix"/>
<feBlend mode="normal" in="SourceGraphic" in2="BackgroundImageFix" result="shape"/>
<feColorMatrix in="SourceAlpha" type="matrix" values="0 0 0 0 0 0 0 0 0 0 0 0 0 0 0 0 0 0 127 0" result="hardAlpha"/>
<feOffset dy="-22"/>
<feGaussianBlur stdDeviation="15"/>
<feComposite in2="hardAlpha" operator="arithmetic" k2="-1" k3="1"/>
<feColorMatrix type="matrix" values="0 0 0 0 1 0 0 0 0 1 0 0 0 0 1 0 0 0 0.3 0"/>
<feBlend mode="normal" in2="shape" result="effect1_innerShadow_13_86782"/>
</filter>
<filter id="filter1_i_13_86782" x="-1.53479" y="-45.0898" width="1269.65" height="652.733" filterUnits="userSpaceOnUse" color-interpolation-filters="sRGB">
<feFlood flood-opacity="0" result="BackgroundImageFix"/>
<feBlend mode="normal" in="SourceGraphic" in2="BackgroundImageFix" result="shape"/>
<feColorMatrix in="SourceAlpha" type="matrix" values="0 0 0 0 0 0 0 0 0 0 0 0 0 0 0 0 0 0 127 0" result="hardAlpha"/>
<feOffset dy="-20"/>
<feGaussianBlur stdDeviation="16.5"/>
<feComposite in2="hardAlpha" operator="arithmetic" k2="-1" k3="1"/>
<feColorMatrix type="matrix" values="0 0 0 0 1 0 0 0 0 1 0 0 0 0 1 0 0 0 0.2 0"/>
<feBlend mode="normal" in2="shape" result="effect1_innerShadow_13_86782"/>
</filter>
<filter id="filter2_i_13_86782" x="584.62" y="-62.1934" width="701.312" height="325.514" filterUnits="userSpaceOnUse" color-interpolation-filters="sRGB">
<feFlood flood-opacity="0" result="BackgroundImageFix"/>
<feBlend mode="normal" in="SourceGraphic" in2="BackgroundImageFix" result="shape"/>
<feColorMatrix in="SourceAlpha" type="matrix" values="0 0 0 0 0 0 0 0 0 0 0 0 0 0 0 0 0 0 127 0" result="hardAlpha"/>
<feOffset dy="5"/>
<feGaussianBlur stdDeviation="15"/>
<feComposite in2="hardAlpha" operator="arithmetic" k2="-1" k3="1"/>
<feColorMatrix type="matrix" values="0 0 0 0 1 0 0 0 0 1 0 0 0 0 1 0 0 0 0.3 0"/>
<feBlend mode="normal" in2="shape" result="effect1_innerShadow_13_86782"/>
</filter>
<linearGradient id="paint0_linear_13_86782" x1="798.842" y1="686.525" x2="1010.49" y2="10.0074" gradientUnits="userSpaceOnUse">
<stop offset="0.151079" stop-color="#3DADFF"/>
</linearGradient>
<linearGradient id="paint1_linear_13_86782" x1="663.346" y1="696.014" x2="1158.11" y2="-109.801" gradientUnits="userSpaceOnUse">
<stop offset="0.261187" stop-color="#3DADFF"/>
<stop offset="0.629871" stop-color="#9867F4"/>
<stop offset="0.995809" stop-color="#9867F4"/>
</linearGradient>
<linearGradient id="paint2_linear_13_86782" x1="1232.57" y1="398.624" x2="66.5674" y2="57.6529" gradientUnits="userSpaceOnUse">
<stop stop-color="white" stop-opacity="0"/>
<stop offset="0.451042" stop-color="white" stop-opacity="0.01"/>
<stop offset="1" stop-color="white" stop-opacity="0"/>
</linearGradient>
<linearGradient id="paint3_linear_13_86782" x1="1142.42" y1="-200.013" x2="789.165" y2="483.197" gradientUnits="userSpaceOnUse">
<stop offset="0.432271" stop-color="#9867F4"/>
<stop offset="0.859588" stop-color="#3DADFF"/>
</linearGradient>
<linearGradient id="paint4_linear_13_86782" x1="1286.58" y1="114.279" x2="557.142" y2="20.8382" gradientUnits="userSpaceOnUse">
<stop stop-color="white" stop-opacity="0"/>
<stop offset="0.523958" stop-color="white" stop-opacity="0.14"/>
<stop offset="1" stop-color="white" stop-opacity="0"/>
</linearGradient>
</defs>
</svg>
