<svg width="151" height="35" viewBox="0 0 151 35" fill="none" xmlns="http://www.w3.org/2000/svg">
<g style="mix-blend-mode:multiply">
<path d="M20.4833 12.2118C23.0844 9.60996 25.6864 7.00895 28.2878 4.40733C29.7277 2.96727 29.9491 0.505834 27.9126 0.505737C24.7247 0.505586 20.4265 1.77115 18.1722 4.02529L17.7794 4.41799L12.5282 9.66921C13.2221 10.3631 13.9161 11.057 14.6102 11.7508C14.9014 12.0322 15.1689 12.3418 15.4976 12.5817C15.9131 12.8924 16.3927 13.1151 16.8974 13.2336C16.9451 13.2454 16.9932 13.2549 17.0413 13.2641C17.1996 13.2944 17.3604 13.3166 17.5216 13.3166L17.7926 13.3166L18.0899 13.3166C18.2111 13.3166 18.3319 13.3038 18.4504 13.2784C18.6917 13.2267 18.9327 13.1718 19.1615 13.0774C19.6564 12.8858 20.1104 12.5891 20.4833 12.2118Z" fill="#3DADFF"/>
</g>
<g style="mix-blend-mode:multiply">
<path d="M19.1594 13.0791C19.6543 12.8875 20.1083 12.5907 20.4812 12.2135C21.3294 11.365 22.1777 10.5167 23.026 9.66837L17.7773 4.41966C17.644 4.28668 17.5108 4.15367 17.3776 4.02062C15.1255 1.77138 12.0753 0.506651 8.89241 0.507082C6.8537 0.507358 5.83149 2.97558 7.27317 4.41706C9.71841 6.86196 12.1624 9.30806 14.608 11.7524C14.8993 12.0339 15.1668 12.3434 15.4955 12.5834C15.9109 12.894 16.3906 13.1168 16.8953 13.2353C16.9429 13.2471 16.991 13.2566 17.0392 13.2658C17.1975 13.2961 17.3582 13.3182 17.5194 13.3182L17.7904 13.3182L18.0877 13.3182C18.2089 13.3182 18.3298 13.3054 18.4483 13.28C18.6896 13.2284 18.9305 13.1735 19.1594 13.0791Z" fill="#854AF2"/>
</g>
<g style="mix-blend-mode:multiply">
<path d="M12.5168 14.7568C9.91492 12.1556 7.31391 9.55365 4.71229 6.95227C3.27224 5.51235 0.810796 5.29098 0.810699 7.32743C0.810548 10.5154 2.07611 14.8136 4.33025 17.0678L4.72295 17.4606L9.97417 22.7118C10.6681 22.0179 11.362 21.324 12.0557 20.6299C12.3372 20.3386 12.6467 20.0711 12.8867 19.7424C13.1973 19.327 13.4201 18.8473 13.5385 18.3426C13.5504 18.295 13.5599 18.2469 13.5691 18.1987C13.5994 18.0404 13.6215 17.8797 13.6215 17.7185L13.6215 17.4475L13.6215 17.1502C13.6215 17.029 13.6087 16.9081 13.5833 16.7896C13.5316 16.5484 13.4768 16.3074 13.3824 16.0785C13.1908 15.5836 12.894 15.1296 12.5168 14.7568Z" fill="#3DADFF"/>
</g>
<g style="mix-blend-mode:multiply">
<path d="M13.384 16.0806C13.1923 15.5857 12.8956 15.1317 12.5183 14.7588C11.6699 13.9106 10.8215 13.0623 9.97322 12.214L4.72451 17.4627C4.59153 17.596 4.45851 17.7292 4.32547 17.8624C2.07623 20.1145 0.811499 23.1647 0.81193 26.3476C0.812206 28.3863 3.28043 29.4085 4.72191 27.9668C7.16681 25.5216 9.61291 23.0776 12.0573 20.632C12.3387 20.3407 12.6483 20.0732 12.8882 19.7445C13.1989 19.3291 13.4216 18.8494 13.5401 18.3447C13.5519 18.2971 13.5614 18.249 13.5706 18.2008C13.6009 18.0425 13.6231 17.8818 13.6231 17.7206L13.6231 17.4496L13.6231 17.1523C13.6231 17.0311 13.6103 16.9102 13.5849 16.7917C13.5332 16.5504 13.4783 16.3095 13.384 16.0806Z" fill="#854AF2"/>
</g>
<g style="mix-blend-mode:multiply">
<path d="M15.0623 22.721C12.4612 25.3229 9.85922 27.9239 7.25785 30.5255C5.81792 31.9656 5.59655 34.427 7.63301 34.4271C10.8209 34.4273 15.1191 33.1617 17.3734 30.9076L17.7662 30.5149L23.0174 25.2637C22.3235 24.5697 21.6296 23.8758 20.9355 23.1821C20.6442 22.9007 20.3767 22.5911 20.048 22.3512C19.6325 22.0405 19.1529 21.8178 18.6482 21.6993C18.6006 21.6875 18.5525 21.678 18.5043 21.6687C18.346 21.6385 18.1853 21.6163 18.0241 21.6163L17.7531 21.6163L17.4558 21.6163C17.3346 21.6163 17.2137 21.6291 17.0952 21.6545C16.8539 21.7062 16.613 21.761 16.3841 21.8554C15.8892 22.0471 15.4352 22.3438 15.0623 22.721Z" fill="#FF711D"/>
</g>
<g style="mix-blend-mode:multiply">
<path d="M16.3862 21.8556C15.8913 22.0473 15.4374 22.344 15.0645 22.7213C14.2163 23.5697 13.368 24.4181 12.5196 25.2664L17.7683 30.5151C17.9016 30.6481 18.0349 30.7811 18.1681 30.9141C20.4201 33.1634 23.4704 34.4281 26.6532 34.4277C28.6919 34.4274 29.7141 31.9592 28.2725 30.5177C25.8272 28.0728 23.3832 25.6267 20.9376 23.1823C20.6463 22.9009 20.3788 22.5913 20.0502 22.3514C19.6347 22.0407 19.1551 21.818 18.6503 21.6995C18.6027 21.6877 18.5546 21.6782 18.5065 21.669C18.3481 21.6387 18.1874 21.6165 18.0262 21.6165L17.7552 21.6165L17.4579 21.6165C17.3367 21.6165 17.2158 21.6293 17.0973 21.6547C16.8561 21.7064 16.6151 21.7613 16.3862 21.8556Z" fill="#EB4EA9"/>
</g>
<g style="mix-blend-mode:multiply">
<path d="M23.0271 20.1781C25.629 22.7792 28.23 25.3812 30.8316 27.9825C32.2716 29.4225 34.7331 29.6438 34.7332 27.6074C34.7333 24.4195 33.4678 20.1213 31.2136 17.867L30.8209 17.4742L25.5697 12.223C24.8758 12.9169 24.1819 13.6108 23.4882 14.3049C23.2067 14.5962 22.8972 14.8637 22.6572 15.1924C22.3466 15.6078 22.1238 16.0875 22.0053 16.5922C21.9935 16.6398 21.984 16.6879 21.9748 16.7361C21.9445 16.8944 21.9223 17.0551 21.9223 17.2163L21.9223 17.4873L21.9223 17.7846C21.9223 17.9058 21.9351 18.0267 21.9605 18.1452C22.0122 18.3865 22.0671 18.6274 22.1615 18.8563C22.3531 19.3512 22.6498 19.8052 23.0271 20.1781Z" fill="#FF711D"/>
</g>
<g style="mix-blend-mode:multiply">
<path d="M22.1609 18.8542C22.3525 19.3491 22.6492 19.8031 23.0265 20.176C23.8749 21.0242 24.7233 21.8725 25.5716 22.7208L30.8203 17.4721C30.9533 17.3388 31.0863 17.2056 31.2194 17.0724C33.4686 14.8204 34.7333 11.7701 34.7329 8.58722C34.7326 6.54852 32.2644 5.52631 30.8229 6.96799C28.378 9.41323 25.9319 11.8572 23.4876 14.3028C23.2061 14.5941 22.8966 14.8616 22.6566 15.1903C22.346 15.6058 22.1232 16.0854 22.0047 16.5901C21.9929 16.6378 21.9834 16.6858 21.9742 16.734C21.9439 16.8923 21.9217 17.053 21.9217 17.2142L21.9217 17.4852L21.9217 17.7825C21.9217 17.9037 21.9345 18.0246 21.9599 18.1431C22.0116 18.3844 22.0665 18.6254 22.1609 18.8542Z" fill="#EB4EA9"/>
</g>
<path d="M46.1286 30.3074V5.42493H52.8421V16.7274L60.7114 5.42493H68.6146L59.4197 17.5602L69.4134 30.3074H60.9493L52.8421 19.1409V30.3074H46.1286Z" fill="#122448"/>
<path d="M87.2439 13.1412V21.9113C87.2439 23.8715 87.0966 25.2992 86.802 26.1943C86.4848 27.1234 85.9522 27.9619 85.2044 28.7098C84.4906 29.4576 83.5501 30.0241 82.383 30.4094C81.2726 30.7833 79.9356 30.9703 78.3719 30.9703C76.8196 30.9703 75.4996 30.7833 74.4118 30.4094C73.29 30.0468 72.3269 29.4803 71.5224 28.7098C70.7859 28.0072 70.2647 27.1801 69.9588 26.2283C69.6529 25.3445 69.4999 23.9055 69.4999 21.9113V13.1412H75.2786V22.3022C75.2786 23.7412 75.5222 24.7723 76.0094 25.3955C76.4513 26.0527 77.2162 26.3813 78.3039 26.3813C79.3804 26.3813 80.1509 26.064 80.6154 25.4295C81.0913 24.795 81.3293 23.7525 81.3293 22.3022V13.1412H87.2439Z" fill="#122448"/>
<path d="M90.2249 30.3074V3.96326H96.1736V20.6366L102.411 13.1412H109.924L102.207 21.4014L110.62 30.3074H102.649L96.1736 22.6761V30.3074H90.2249Z" fill="#122448"/>
<path d="M129.159 13.1412V21.9113C129.159 23.8715 129.012 25.2992 128.717 26.1943C128.4 27.1234 127.867 27.9619 127.119 28.7098C126.406 29.4576 125.465 30.0241 124.298 30.4094C123.188 30.7833 121.851 30.9703 120.287 30.9703C118.735 30.9703 117.415 30.7833 116.327 30.4094C115.205 30.0468 114.242 29.4803 113.437 28.7098C112.701 28.0072 112.18 27.1801 111.874 26.2283C111.568 25.3445 111.415 23.9055 111.415 21.9113V13.1412H117.194V22.3022C117.194 23.7412 117.437 24.7723 117.924 25.3955C118.366 26.0527 119.131 26.3813 120.219 26.3813C121.295 26.3813 122.066 26.064 122.53 25.4295C123.006 24.795 123.244 23.7525 123.244 22.3022V13.1412H129.159Z" fill="#122448"/>
<path d="M132.145 30.3074V13.1412H137.686V16.6254C138.467 15.2657 139.397 14.246 140.473 13.5661C141.515 12.9203 142.779 12.5973 144.263 12.5973C145.385 12.5973 146.382 12.7673 147.254 13.1072C148.116 13.4925 148.812 14.0137 149.345 14.6709C149.832 15.3281 150.155 16.0249 150.314 16.7614C150.506 17.7019 150.603 18.9426 150.603 20.4836V30.3074H144.535V21.1124C144.535 19.7188 144.314 18.7216 143.872 18.1211C143.43 17.4979 142.711 17.1863 141.714 17.1863C140.467 17.1863 139.549 17.6509 138.96 18.58C138.382 19.5091 138.093 21.0161 138.093 23.101V30.3074H132.145Z" fill="#122448"/>
</svg>
